<?xml version="1.0" standalone="no"?><!DOCTYPE svg PUBLIC "-//W3C//DTD SVG 1.1//EN" "http://www.w3.org/Graphics/SVG/1.1/DTD/svg11.dtd"><svg t="1641032973702" class="icon" viewBox="0 0 1024 1024" version="1.1" xmlns="http://www.w3.org/2000/svg" p-id="4618" xmlns:xlink="http://www.w3.org/1999/xlink" width="200" height="200"><defs><style type="text/css"></style></defs><path d="M947.095049 863.910704c-54.150963-166.157026-211.030007-284.865815-396.095772-288.287732-23.071485-0.388053-44.87298 0.105833-65.545596 1.516932v164.181486c0.105833 0.493885 0.211665 0.98777 0.211665 1.481655 0 3.986358-3.280808 7.302443-7.302442 7.302443-2.716368 0-5.009405-1.4111-6.208841-3.492473v0.70555L69.179178 465.627726h2.081373c-3.986358 0-7.302443-3.280808-7.302443-7.302443 0-2.892755 1.69332-5.397458 4.09219-6.596892L472.012953 169.437834v0.70555c1.305268-2.081373 3.598305-3.492473 6.208841-3.492473 3.986358 0 7.302443 3.280808 7.302442 7.302443 0 0.493885-0.105833 0.98777-0.211665 1.481655v159.277913c18.48541-0.881938 37.888035-1.199435 58.243153-0.811382 229.903469 3.880525 416.380336 196.742619 416.380336 426.751921 0.14111 35.524443-4.444965 70.202226-12.841011 103.257243zM485.453681 160.089296v0.211665h-0.388052l0.388052-0.211665z m0 596.40142l-0.28222-0.211665h0.28222v0.211665z" p-id="4619" fill="#ffffff"></path></svg>