<?xml version="1.0" standalone="no"?><!DOCTYPE svg PUBLIC "-//W3C//DTD SVG 1.1//EN" "http://www.w3.org/Graphics/SVG/1.1/DTD/svg11.dtd"><svg t="1641024866936" class="icon" viewBox="0 0 1024 1024" version="1.1" xmlns="http://www.w3.org/2000/svg" p-id="3055" xmlns:xlink="http://www.w3.org/1999/xlink" width="200" height="200"><defs><style type="text/css"></style></defs><path d="M496.64 639.488h-4.608l-261.12-95.232c-4.608-2.048-6.656-6.656-6.656-11.264v-322.56c0-4.608 2.048-6.656 4.608-8.704s6.656-2.048 8.704 0l261.12 75.264c4.608 2.048 8.704 6.656 8.704 11.264v340.48c0 4.608-2.048 6.656-4.608 8.704s-4.096 2.048-6.144 2.048z m-250.368-112.64l239.104 86.528V294.4L246.272 225.792v301.056z" fill="#ffffff" p-id="3056"></path><path d="M496.64 639.488c-2.048 0-4.608 0-6.656-2.048s-4.608-6.656-4.608-8.704V287.744c0-4.608 2.048-8.704 6.656-11.264l252.416-112.64c4.608-2.048 6.656-2.048 11.264 0 2.048 2.048 4.608 6.656 4.608 8.704v325.12c0 4.608-2.048 8.704-6.656 8.704l-252.416 130.56c-2.56 2.56-2.56 2.56-4.608 2.56z m10.752-345.088v316.416L737.28 493.568V190.464L507.392 294.4z" fill="#ffffff" p-id="3057"></path><path d="M237.568 221.696c-4.608 0-8.704-2.048-11.264-6.656-2.048-6.656 0-11.264 6.656-13.312l234.496-95.232h6.656l276.48 57.344c6.656 2.048 8.704 6.656 8.704 13.312-2.048 4.608-8.704 8.704-15.36 6.656L472.064 128.512 240.128 221.696h-2.56zM545.28 548.864c-2.048 0-6.656-2.048-8.704-4.608-4.608-4.608-4.608-11.264 0-15.36l59.904-55.296-59.904-55.296c-4.608-4.608-4.608-11.264 0-15.36 4.608-4.608 11.264-4.608 15.36 0l66.56 64c2.048 2.048 4.608 4.608 4.608 8.704 0 4.608-2.048 6.656-4.608 8.704l-66.56 64c0 0.512-4.608 0.512-6.656 0.512z" fill="#ffffff" p-id="3058"></path><path d="M578.56 482.816C235.52 482.816 27.648 438.272 23.04 365.568c-2.048-46.592 77.312-86.528 209.92-103.936 6.656 0 11.264 4.608 13.312 8.704 0 6.656-4.608 11.264-8.704 13.312C109.056 299.008 45.056 336.896 47.104 363.52c2.048 33.28 117.248 97.28 532.992 97.28h11.264c6.656 0 11.264 4.608 11.264 11.264 0 6.656-4.608 11.264-11.264 11.264s-8.704-0.512-12.8-0.512zM686.592 476.16c-6.656 0-11.264-4.608-11.264-11.264 0-6.656 4.608-11.264 11.264-11.264 170.496-11.264 289.792-57.344 291.84-90.624 0-8.704-8.704-50.688-225.792-83.968-6.656 0-11.264-6.656-8.704-13.312 0-6.656 6.656-11.264 13.312-8.704 163.84 26.624 245.76 61.952 243.2 108.544-4.096 59.392-161.28 101.376-313.856 110.592z" fill="#ffffff" p-id="3059"></path><path d="M302.08 896.512c11.264 13.312 28.672 19.968 53.248 19.968s41.984-6.656 55.296-17.92c13.312-13.312 19.968-28.672 19.968-48.64 0-11.264-2.048-22.016-8.704-30.72-4.608-6.656-13.312-13.312-22.016-15.36 4.608-2.048 8.704-6.656 13.312-8.704 6.656-8.704 11.264-17.92 11.264-30.72 0-17.92-6.656-30.72-17.92-39.936-13.312-11.264-28.672-15.36-50.688-15.36-26.624 0-46.592 8.704-55.296 28.672-4.608 6.656-6.656 15.36-8.704 24.576 0 4.608 0 8.704 2.048 11.264 4.608 2.048 8.704 4.608 13.312 4.608 6.656 0 13.312-4.608 13.312-11.264 0-6.656 2.048-11.264 4.608-15.36 6.656-11.264 17.92-15.36 35.328-15.36 8.704 0 17.92 2.048 24.576 6.656 6.656 4.608 11.264 13.312 11.264 22.016 0 13.312-4.608 22.016-15.36 26.624-6.656 2.048-13.312 4.608-22.016 4.608h-2.048c-2.048 0-6.656 0-8.704 2.048-4.608 4.608-4.608 6.656-4.608 8.704 0 2.048 2.048 6.656 4.608 8.704 0 2.048 4.608 4.608 6.656 4.608 15.36 0 26.624 2.048 35.328 8.704 8.704 4.608 11.264 13.312 11.264 26.624 0 11.264-4.608 19.968-11.264 26.624-8.704 6.656-17.92 8.704-30.72 8.704-15.36 0-28.672-4.608-35.328-15.36-2.048-2.048-4.608-8.704-4.608-15.36-2.048-6.656-8.704-11.264-15.36-11.264-4.608 0-8.704 2.048-11.264 4.608-4.608 4.608-4.608 8.704-4.608 13.312 0.512 9.728 7.168 20.48 13.824 29.696z m169.984-2.56c-13.312-13.312-22.016-37.376-22.016-73.216 0-24.576 2.048-46.592 8.704-64 11.264-33.28 33.28-50.688 66.56-50.688 22.016 0 39.936 6.656 48.64 17.92 4.608 6.656 8.704 13.312 11.264 19.968 2.048 4.608 0 8.704-2.048 13.312s-6.656 6.656-11.264 6.656c-6.656 0-11.264-4.608-13.312-8.704s-2.048-6.656-4.608-8.704c-6.656-8.704-15.36-11.264-26.624-11.264-15.36-2.048-26.624 4.608-33.28 17.92-8.704 11.264-13.312 28.672-15.36 48.64 4.608-6.656 11.264-11.264 19.968-15.36 8.704-4.608 17.92-6.656 28.672-6.656 17.92 0 33.28 4.608 44.032 15.36 13.312 11.264 19.968 26.624 19.968 48.64 0 17.92-6.656 35.328-17.92 48.64-13.312 13.312-28.672 22.016-53.248 22.016-19.456 1.536-34.816-5.12-48.128-20.48z m79.872-15.36c6.656-8.704 8.704-17.92 8.704-30.72 0-8.704-2.048-19.968-8.704-28.672-4.608-8.704-15.36-13.312-28.672-13.312-11.264 0-19.968 4.608-28.672 11.264-6.656 6.656-11.264 17.92-11.264 30.72 0 11.264 4.608 22.016 11.264 30.72 6.656 8.704 15.36 11.264 28.672 11.264 13.312 0 22.016-2.56 28.672-11.264z m57.344-64c0-22.016 2.048-41.984 8.704-57.344 11.264-30.72 30.72-46.592 61.952-46.592 26.624 0 46.592 11.264 57.344 33.28 6.656 13.312 11.264 28.672 13.312 48.64v19.968c0 26.624-4.608 50.688-13.312 68.608-11.264 26.624-33.28 39.936-59.904 39.936-24.576 0-44.032-11.264-55.296-30.72-8.192-23.04-12.8-47.104-12.8-75.776z m37.888 48.64c6.656 17.92 17.92 26.624 33.28 26.624 13.312 0 22.016-4.608 30.72-15.36 6.656-11.264 11.264-33.28 11.264-64 0-22.016-2.048-39.936-8.704-55.296-4.608-13.312-15.36-19.968-30.72-19.968s-24.576 6.656-30.72 19.968c-6.656 13.312-11.264 33.28-11.264 59.904-0.512 19.456 1.536 36.864 6.144 48.128zM788.48 783.36c-8.704-8.704-13.312-17.92-13.312-30.72 0-13.312 4.608-22.016 13.312-30.72 8.704-8.704 19.968-13.312 30.72-13.312 13.312 0 22.016 4.608 30.72 13.312 8.704 8.704 13.312 17.92 13.312 30.72 0 13.312-4.608 22.016-13.312 30.72-8.704 8.704-19.968 13.312-30.72 13.312s-22.016-4.608-30.72-13.312z m17.92-44.032c-4.608 4.608-6.656 8.704-6.656 15.36 0 4.608 2.048 11.264 6.656 13.312 4.608 4.608 8.704 6.656 15.36 6.656 4.608 0 11.264-2.048 13.312-6.656 4.608-4.608 6.656-8.704 6.656-15.36 0-4.608-2.048-11.264-6.656-13.312-4.608-4.608-8.704-6.656-15.36-6.656-4.608 0-9.216 2.048-13.312 6.656z" fill="#ffffff" p-id="3060"></path></svg>